HIERARCHY
ROOT root
{
	OFFSET 0.000000 0.000000 0.000000
	CHANNELS 6 Xposition Yposition Zposition Zrotation Yrotation Xrotation
	JOINT lhip
	{
		OFFSET 0.058581 -0.082280 -0.017664
		CHANNELS 3 Zrotation Yrotation Xrotation
		JOINT lknee
		{
			OFFSET 0.043451 -0.386469 0.008037
			CHANNELS 3 Zrotation Yrotation Xrotation
			JOINT lankle
			{
				OFFSET -0.014790 -0.426874 -0.037428
				CHANNELS 3 Zrotation Yrotation Xrotation
				JOINT ltoe
				{
					OFFSET 0.041054 -0.060286 0.122042
					CHANNELS 3 Zrotation Yrotation Xrotation
					End Site
					{
						OFFSET 0.000000 0.000000 0.000000
					}
				}
			}
		}
	}
	JOINT rhip
	{
		OFFSET -0.060310 -0.090513 -0.013543
		CHANNELS 3 Zrotation Yrotation Xrotation
		JOINT rknee
		{
			OFFSET -0.043257 -0.383688 -0.004843
			CHANNELS 3 Zrotation Yrotation Xrotation
			JOINT rankle
			{
				OFFSET 0.019056 -0.420046 -0.034562
				CHANNELS 3 Zrotation Yrotation Xrotation
				JOINT rtoe
				{
					OFFSET -0.034840 -0.062106 0.130323
					CHANNELS 3 Zrotation Yrotation Xrotation
					End Site
					{
						OFFSET 0.000000 0.000000 0.000000
					}
				}
			}
		}
	}
	JOINT lowerback
	{
		OFFSET 0.004439 0.124404 -0.038385
		CHANNELS 3 Zrotation Yrotation Xrotation
		JOINT upperback
		{
			OFFSET 0.004488 0.137956 0.026820
			CHANNELS 3 Zrotation Yrotation Xrotation
			JOINT chest
			{
				OFFSET -0.002265 0.056032 0.002855
				CHANNELS 3 Zrotation Yrotation Xrotation
				JOINT lowerneck
				{
					OFFSET -0.013390 0.211636 -0.033468
					CHANNELS 3 Zrotation Yrotation Xrotation
					JOINT upperneck
					{
						OFFSET 0.010113 0.088937 0.050410
						CHANNELS 3 Zrotation Yrotation Xrotation
						End Site
						{
							OFFSET 0.000000 0.000000 0.000000
						}
					}
				}
				JOINT lclavicle
				{
					OFFSET 0.071702 0.114000 -0.018898
					CHANNELS 3 Zrotation Yrotation Xrotation
					JOINT lshoulder
					{
						OFFSET 0.122921 0.045205 -0.019046
						CHANNELS 3 Zrotation Yrotation Xrotation
						JOINT lelbow
						{
							OFFSET 0.255332 -0.015649 -0.022946
							CHANNELS 3 Zrotation Yrotation Xrotation
							JOINT lwrist
							{
								OFFSET 0.265709 0.012698 -0.007375
								CHANNELS 3 Zrotation Yrotation Xrotation
								End Site
								{
									OFFSET 0.000000 0.000000 0.000000
								}
							}
						}
					}
				}
				JOINT rclavicle
				{
					OFFSET -0.082954 0.112472 -0.023707
					CHANNELS 3 Zrotation Yrotation Xrotation
					JOINT rshoulder
					{
						OFFSET -0.113228 0.046853 -0.008472
						CHANNELS 3 Zrotation Yrotation Xrotation
						JOINT relbow
						{
							OFFSET -0.260127 -0.014369 -0.031269
							CHANNELS 3 Zrotation Yrotation Xrotation
							JOINT rwrist
							{
								OFFSET -0.269108 0.006794 -0.006027
								CHANNELS 3 Zrotation Yrotation Xrotation
								End Site
								{
									OFFSET 0.000000 0.000000 0.000000
								}
							}
						}
					}
				}
			}
		}
	}
}
MOTION
Frames: 16
Frame Time: 0.033333
-0.372085 0.229610 0.988366 92.049615 0.779150 88.247361 0.295817 -1.963347 2.297876 0.069535 -8.269842 4.086838 2.708356 9.766883 -13.563270 0.000000 -0.000000 0.000000 -1.032441 -1.313501 3.912651 1.616591 -2.458602 -3.019981 0.966194 -7.270547 -8.639900 0.000000 -0.000000 0.000000 0.195936 1.088447 1.159319 1.546113 -4.651749 5.741727 1.093364 -2.133866 -4.208079 -5.023358 5.009477 10.893812 2.737115 2.303266 -1.325270 -19.538777 -3.523916 4.702734 -61.354421 -4.352873 14.182291 6.624863 -22.203146 5.186907 -18.494726 -17.304635 2.957486 18.460248 9.109001 4.145309 56.993309 3.965373 14.383952 -6.857429 17.581587 4.520244 18.253626 14.930386 -1.458230 
-0.370925 0.229233 0.987961 92.063879 0.748218 88.274101 0.272478 -1.970893 2.328534 0.072078 -8.288070 4.112361 2.640405 9.792501 -13.606194 0.000000 -0.000000 0.000000 -1.036375 -1.277045 4.126703 1.626772 -2.415427 -3.363985 1.053426 -7.406662 -8.594720 0.000000 -0.000000 0.000000 0.203890 1.142526 1.125830 1.474092 -4.592220 5.434625 1.110467 -2.129759 -3.902358 -5.028898 4.821699 11.106144 2.773395 2.140903 -1.226551 -19.688775 -3.508243 4.827775 -61.361158 -4.303535 14.236749 6.548360 -22.185273 5.601006 -18.582318 -17.393275 2.819080 18.640973 9.171049 4.064418 56.927347 4.068889 14.477357 -6.725740 17.990726 4.754318 18.030373 15.058006 -1.613509 
-0.369482 0.228839 0.987706 92.083650 0.735696 88.242390 0.277727 -1.971237 2.468377 0.076908 -8.287302 4.101057 2.615384 9.768936 -13.665544 0.000000 -0.000000 0.000000 -1.008452 -1.299132 4.267618 1.592776 -2.459922 -3.395507 1.018661 -7.408365 -8.640874 0.000000 -0.000000 0.000000 0.194896 1.166419 0.996761 1.472214 -4.566001 5.506390 1.089486 -2.118010 -3.888425 -4.976294 4.663158 11.290478 2.783915 1.941894 -1.007491 -19.757068 -3.392906 4.889282 -61.431302 -4.219867 14.229596 6.546938 -22.293802 5.673084 -18.592024 -17.502261 2.802165 18.717354 9.187308 4.010882 56.991821 4.176986 14.559460 -6.646300 18.473323 4.821386 17.894916 15.196169 -1.728279 
-0.367489 0.228337 0.987407 92.126614 0.720406 88.200802 0.294257 -1.975472 2.662182 0.071115 -8.291640 4.072477 2.594620 9.717913 -13.734548 0.000000 -0.000000 0.000000 -0.971980 -1.314650 4.466402 1.554537 -2.528911 -3.444678 0.968915 -7.409206 -8.683389 0.000000 -0.000000 0.000000 0.162415 1.188991 0.793790 1.478470 -4.534938 5.586192 1.069928 -2.112950 -3.876951 -4.882702 4.458469 11.500497 2.804936 1.699528 -0.708062 -19.822322 -3.218962 4.924521 -61.466549 -4.139517 14.208457 6.609871 -22.535081 5.677347 -18.358191 -17.659108 2.799470 18.798385 9.140169 3.926113 57.080907 4.255266 14.650097 -6.537750 19.134899 4.837503 17.675867 15.389007 -1.955031 
-0.366296 0.228035 0.987228 92.163843 0.713602 88.189601 0.310829 -1.976613 2.763874 0.066810 -8.298443 4.052852 2.585658 9.682143 -13.779627 0.000000 -0.000000 0.000000 -0.953968 -1.334955 4.578932 1.543180 -2.568159 -3.485653 0.941366 -7.405647 -8.698327 0.000000 -0.000000 0.000000 0.140072 1.202624 0.671152 1.487343 -4.517790 5.609162 1.063056 -2.115113 -3.880531 -4.826637 4.345073 11.586695 2.817100 1.559111 -0.543599 -19.847477 -3.137310 4.913147 -61.462151 -4.105346 14.211410 6.684063 -22.678850 5.657877 -18.154705 -17.738722 2.831053 18.847737 9.095938 3.886841 57.115726 4.283389 14.696678 -6.455922 19.512674 4.882826 17.548359 15.485897 -2.062161 
-0.364747 0.227637 0.986979 92.231464 0.708099 88.187714 0.339950 -1.978093 2.887420 0.063586 -8.319699 4.011104 2.570890 9.634124 -13.835933 0.000000 -0.000000 0.000000 -0.929739 -1.365713 4.728901 1.536934 -2.628895 -3.563300 0.916281 -7.406017 -8.706476 0.000000 -0.000000 0.000000 0.107862 1.218234 0.541377 1.498653 -4.492190 5.596800 1.065665 -2.120203 -3.895452 -4.755976 4.209546 11.625777 2.831417 1.390166 -0.378721 -19.866009 -3.063022 4.884291 -61.419788 -4.097293 14.190431 6.814365 -22.868586 5.582735 -17.836297 -17.833795 2.847367 18.903543 9.042393 3.858027 57.163255 4.304643 14.747845 -6.365096 19.918567 4.968594 17.374157 15.577527 -2.155824 
-0.363312 0.227275 0.986746 92.322626 0.701350 88.187739 0.365579 -1.983939 2.995199 0.062706 -8.344344 3.973476 2.553906 9.584899 -13.886342 0.000000 -0.000000 0.000000 -0.906893 -1.394973 4.881283 1.533406 -2.694585 -3.654101 0.894912 -7.423379 -8.717419 0.000000 -0.000000 0.000000 0.069234 1.229559 0.465236 1.503552 -4.468844 5.548483 1.082908 -2.119996 -3.920017 -4.685718 4.084736 11.569539 2.849869 1.246169 -0.247309 -19.876158 -3.047694 4.862160 -61.320982 -4.154132 14.112485 6.963909 -23.046283 5.411683 -17.530545 -17.904275 2.767778 18.950684 9.043903 3.860358 57.214243 4.307929 14.786052 -6.320597 20.128739 5.021537 17.235500 15.626243 -2.225329 
-0.362106 0.226954 0.986591 92.423531 0.703508 88.187288 0.399324 -1.993279 3.069679 0.057408 -8.377938 3.969577 2.536991 9.545880 -13.934532 0.000000 -0.000000 0.000000 -0.877540 -1.431677 5.003217 1.538119 -2.752871 -3.709729 0.861906 -7.446866 -8.749220 0.000000 -0.000000 0.000000 0.034828 1.239793 0.420180 1.508841 -4.453473 5.514392 1.104958 -2.113900 -3.961305 -4.611048 3.983279 11.443433 2.881472 1.119110 -0.132443 -19.883398 -3.097343 4.843538 -61.178882 -4.263872 14.005673 7.124996 -23.195513 5.173442 -17.276929 -17.948635 2.671934 19.011798 9.117163 3.901577 57.233560 4.320602 14.804424 -6.313854 20.131560 5.049916 17.146003 15.624223 -2.224336 
-0.361091 0.226671 0.986505 92.515657 0.712968 88.195401 0.435808 -2.007710 3.116151 0.053753 -8.408014 3.980817 2.519437 9.520268 -13.985183 0.000000 -0.000000 0.000000 -0.844839 -1.462060 5.089319 1.547536 -2.793951 -3.737242 0.822862 -7.469289 -8.792624 0.000000 -0.000000 0.000000 -0.005326 1.251271 0.379802 1.523578 -4.445646 5.540007 1.130762 -2.097636 -4.027924 -4.521500 3.912817 11.258299 2.935752 1.010456 -0.074677 -19.876402 -3.167486 4.810648 -61.023657 -4.392389 13.901084 7.274578 -23.371260 4.959769 -17.069148 -17.980206 2.656874 19.072350 9.209105 3.945649 57.208091 4.328427 14.798229 -6.319320 20.027669 5.109016 17.104993 15.588687 -2.107316 
-0.359995 0.226377 0.986424 92.592535 0.726966 88.246457 0.476916 -2.030296 3.131758 0.057193 -8.428488 3.976368 2.502846 9.495844 -14.032432 0.000000 -0.000000 0.000000 -0.808509 -1.501513 5.151074 1.561619 -2.812640 -3.794798 0.793005 -7.479013 -8.823117 0.000000 -0.000000 0.000000 -0.056189 1.274897 0.325584 1.554541 -4.429961 5.579696 1.166493 -2.071701 -4.124620 -4.406327 3.845146 10.967071 3.016492 0.906489 -0.019805 -19.856288 -3.230517 4.754995 -60.844686 -4.530094 13.809409 7.433699 -23.658446 4.758085 -16.828602 -18.028707 2.669941 19.138614 9.272463 3.975647 57.114192 4.316016 14.764833 -6.335521 19.844398 5.158660 17.065444 15.546069 -1.937038 
-0.359232 0.226173 0.986369 92.634269 0.733490 88.323802 0.508655 -2.047116 3.102454 0.053735 -8.439497 3.966059 2.489066 9.480863 -14.061585 0.000000 -0.000000 0.000000 -0.786089 -1.544476 5.157190 1.569539 -2.813420 -3.855711 0.773740 -7.475974 -8.833447 0.000000 -0.000000 0.000000 -0.101958 1.290186 0.266321 1.585817 -4.420693 5.600633 1.192140 -2.054734 -4.211967 -4.317648 3.798903 10.726920 3.077772 0.833133 0.050746 -19.843541 -3.245681 4.706957 -60.723090 -4.607355 13.763019 7.534609 -23.877258 4.585857 -16.639033 -18.088045 2.642713 19.196253 9.288818 3.993585 57.004330 4.299632 14.728631 -6.365152 19.655410 5.119443 17.040318 15.514814 -1.850059 
-0.358565 0.226024 0.986293 92.656709 0.732637 88.405203 0.528991 -2.060909 3.069016 0.048295 -8.435680 3.945849 2.470901 9.470765 -14.079445 0.000000 -0.000000 0.000000 -0.773115 -1.573302 5.137124 1.570318 -2.814110 -3.896460 0.750508 -7.473395 -8.837229 0.000000 -0.000000 0.000000 -0.136197 1.296391 0.198153 1.610355 -4.413376 5.626830 1.205820 -2.043129 -4.284875 -4.240521 3.768507 10.501935 3.122335 0.770621 0.101331 -19.848971 -3.261329 4.671666 -60.631193 -4.678692 13.706071 7.634262 -24.019020 4.372941 -16.475703 -18.141813 2.585804 19.249786 9.311813 4.024065 56.889769 4.300469 14.683963 -6.422213 19.417997 5.036249 17.026676 15.475189 -1.777343 
-0.357963 0.225967 0.986210 92.650703 0.730393 88.451683 0.532367 -2.056268 3.079550 0.053825 -8.432090 3.911465 2.458236 9.475394 -14.096099 0.000000 -0.000000 0.000000 -0.766083 -1.575504 5.142279 1.568624 -2.813465 -3.928010 0.727440 -7.478615 -8.843992 0.000000 -0.000000 0.000000 -0.139992 1.296469 0.159532 1.622425 -4.406838 5.646967 1.204122 -2.032605 -4.322922 -4.177123 3.745432 10.280933 3.151502 0.732067 0.120746 -19.887131 -3.279646 4.640047 -60.562636 -4.747537 13.648235 7.721123 -24.061909 4.212934 -16.358307 -18.168127 2.565454 19.297946 9.327695 4.038289 56.774416 4.305392 14.636374 -6.487161 19.164154 4.973606 17.024660 15.422183 -1.679655 
-0.357422 0.225957 0.986075 92.628170 0.728460 88.485948 0.538052 -2.039601 3.098479 0.046902 -8.440926 3.880843 2.453976 9.490402 -14.120713 0.000000 -0.000000 0.000000 -0.769153 -1.566862 5.142741 1.576229 -2.798106 -3.934103 0.714139 -7.490190 -8.868288 0.000000 -0.000000 0.000000 -0.115696 1.283999 0.165134 1.621736 -4.403342 5.600775 1.192014 -2.027124 -4.324128 -4.134100 3.713825 10.048992 3.164708 0.716129 0.158795 -19.933768 -3.285106 4.623581 -60.541423 -4.794755 13.614772 7.790009 -24.029758 4.159607 -16.270287 -18.167795 2.550140 19.328083 9.313284 4.020636 56.690468 4.301015 14.595520 -6.560275 18.914456 4.936350 17.028340 15.367309 -1.619330 
-0.356937 0.225989 0.985909 92.594630 0.729309 88.550554 0.558031 -2.021110 3.085684 0.018123 -8.461244 3.841987 2.459205 9.509322 -14.151484 0.000000 -0.000000 0.000000 -0.785900 -1.562703 5.083520 1.604350 -2.759111 -3.895893 0.715031 -7.495921 -8.916188 0.000000 -0.000000 0.000000 -0.075392 1.258423 0.175209 1.625684 -4.403393 5.503372 1.178290 -2.032696 -4.331936 -4.115075 3.683798 9.826046 3.159260 0.722612 0.219776 -19.967665 -3.253632 4.622793 -60.598283 -4.791570 13.620142 7.830041 -23.956872 4.176600 -16.183997 -18.158188 2.499513 19.336078 9.246621 3.981498 56.644082 4.276909 14.557537 -6.635100 18.688752 4.882948 17.007131 15.329108 -1.636840 
-0.356488 0.226009 0.985751 92.522330 0.753087 88.655190 0.617035 -1.984200 3.056144 -0.023184 -8.474475 3.759922 2.470170 9.530549 -14.184932 0.000000 -0.000000 0.000000 -0.788731 -1.563121 4.953796 1.650935 -2.690760 -3.818501 0.723095 -7.482431 -8.986506 0.000000 -0.000000 0.000000 -0.014011 1.230940 0.149890 1.651708 -4.395695 5.407370 1.165380 -2.032059 -4.345182 -4.107270 3.660104 9.607402 3.126066 0.723244 0.256558 -19.971287 -3.172156 4.590924 -60.740030 -4.740263 13.665715 7.798881 -23.846292 4.208938 -16.113453 -18.137687 2.391176 19.327264 9.124187 3.918544 56.625239 4.242444 14.524288 -6.707004 18.506455 4.810313 16.997064 15.295457 -1.700553 
